<svg xmlns="http://www.w3.org/2000/svg" xmlns:xlink="http://www.w3.org/1999/xlink" width="2000" zoomAndPan="magnify" viewBox="0 0 1500 1499.999933" height="2000" preserveAspectRatio="xMidYMid meet" version="1.0"><defs><g/><clipPath id="9ec5734c21"><path d="M 405 346.234375 L 1065 346.234375 L 1065 1016 L 405 1016 Z M 405 346.234375 " clip-rule="nonzero"/></clipPath><clipPath id="bc454c04d9"><path d="M 743.070312 349.839844 L 822.820312 436.523438 C 827.976562 442.128906 835.324219 445.203125 842.9375 444.941406 L 959.464844 440.941406 C 962.566406 440.835938 965.578125 442.019531 967.773438 444.214844 C 969.972656 446.410156 971.160156 449.417969 971.058594 452.523438 L 967.105469 571.28125 C 966.851562 578.910156 969.875 586.28125 975.410156 591.535156 L 1060.71875 672.535156 C 1062.984375 674.6875 1064.269531 677.675781 1064.269531 680.796875 C 1064.269531 683.921875 1062.984375 686.910156 1060.71875 689.058594 L 975.410156 770.058594 C 969.875 775.316406 966.851562 782.6875 967.105469 790.316406 L 971.058594 909.074219 C 971.160156 912.175781 969.972656 915.183594 967.773438 917.378906 C 965.578125 919.574219 962.566406 920.761719 959.464844 920.65625 L 842.9375 916.652344 C 835.324219 916.390625 827.976562 919.46875 822.820312 925.074219 L 743.070312 1011.757812 C 740.976562 1014.03125 738.03125 1015.324219 734.945312 1015.324219 C 731.855469 1015.324219 728.910156 1014.03125 726.820312 1011.757812 L 647.070312 925.074219 C 641.910156 919.46875 634.5625 916.390625 626.953125 916.652344 L 510.425781 920.65625 C 507.320312 920.761719 504.3125 919.574219 502.113281 917.378906 C 499.914062 915.183594 498.726562 912.175781 498.832031 909.074219 L 502.78125 790.316406 C 503.035156 782.6875 500.011719 775.316406 494.476562 770.058594 L 409.167969 689.058594 C 406.902344 686.910156 405.617188 683.921875 405.617188 680.796875 C 405.617188 677.675781 406.902344 674.6875 409.167969 672.535156 L 494.476562 591.535156 C 500.011719 586.28125 503.035156 578.910156 502.78125 571.28125 L 498.832031 452.523438 C 498.726562 449.417969 499.914062 446.410156 502.113281 444.214844 C 504.3125 442.019531 507.320312 440.835938 510.425781 440.941406 L 626.953125 444.941406 C 634.5625 445.203125 641.910156 442.128906 647.070312 436.523438 L 726.820312 349.839844 C 728.910156 347.566406 731.855469 346.273438 734.945312 346.273438 C 738.03125 346.273438 740.976562 347.566406 743.070312 349.839844 Z M 743.070312 349.839844 " clip-rule="nonzero"/></clipPath><clipPath id="4101d7fcf9"><path d="M 0.601562 0.234375 L 659.398438 0.234375 L 659.398438 669.441406 L 0.601562 669.441406 Z M 0.601562 0.234375 " clip-rule="nonzero"/></clipPath><clipPath id="b0c68fb8cb"><path d="M 338.070312 3.839844 L 417.820312 90.523438 C 422.976562 96.128906 430.324219 99.203125 437.9375 98.941406 L 554.464844 94.941406 C 557.566406 94.835938 560.578125 96.019531 562.773438 98.214844 C 564.972656 100.410156 566.160156 103.417969 566.058594 106.523438 L 562.105469 225.28125 C 561.851562 232.910156 564.875 240.28125 570.410156 245.535156 L 655.71875 326.535156 C 657.984375 328.6875 659.269531 331.675781 659.269531 334.796875 C 659.269531 337.921875 657.984375 340.910156 655.71875 343.058594 L 570.410156 424.058594 C 564.875 429.316406 561.851562 436.6875 562.105469 444.316406 L 566.058594 563.074219 C 566.160156 566.175781 564.972656 569.183594 562.773438 571.378906 C 560.578125 573.574219 557.566406 574.761719 554.464844 574.65625 L 437.9375 570.652344 C 430.324219 570.390625 422.976562 573.46875 417.820312 579.074219 L 338.070312 665.757812 C 335.976562 668.03125 333.03125 669.324219 329.945312 669.324219 C 326.855469 669.324219 323.910156 668.03125 321.820312 665.757812 L 242.070312 579.074219 C 236.910156 573.46875 229.5625 570.390625 221.953125 570.652344 L 105.425781 574.65625 C 102.320312 574.761719 99.3125 573.574219 97.113281 571.378906 C 94.914062 569.183594 93.726562 566.175781 93.832031 563.074219 L 97.78125 444.316406 C 98.035156 436.6875 95.011719 429.316406 89.476562 424.058594 L 4.167969 343.058594 C 1.902344 340.910156 0.617188 337.921875 0.617188 334.796875 C 0.617188 331.675781 1.902344 328.6875 4.167969 326.535156 L 89.476562 245.535156 C 95.011719 240.28125 98.035156 232.910156 97.78125 225.28125 L 93.832031 106.523438 C 93.726562 103.417969 94.914062 100.410156 97.113281 98.214844 C 99.3125 96.019531 102.320312 94.835938 105.425781 94.941406 L 221.953125 98.941406 C 229.5625 99.203125 236.910156 96.128906 242.070312 90.523438 L 321.820312 3.839844 C 323.910156 1.566406 326.855469 0.273438 329.945312 0.273438 C 333.03125 0.273438 335.976562 1.566406 338.070312 3.839844 Z M 338.070312 3.839844 " clip-rule="nonzero"/></clipPath><clipPath id="e7f416e42b"><rect x="0" width="660" y="0" height="670"/></clipPath><clipPath id="48d3fbd9d5"><path d="M 405 346 L 1064.65625 346 L 1064.65625 1015.414062 L 405 1015.414062 Z M 405 346 " clip-rule="nonzero"/></clipPath><clipPath id="ccec844c4b"><path d="M 743.066406 349.839844 L 822.816406 436.519531 C 827.972656 442.125 835.320312 445.203125 842.933594 444.941406 L 959.457031 440.941406 C 962.5625 440.832031 965.570312 442.019531 967.769531 444.214844 C 969.964844 446.410156 971.152344 449.417969 971.050781 452.519531 L 967.101562 571.277344 C 966.847656 578.90625 969.867188 586.277344 975.402344 591.53125 L 1060.710938 672.53125 C 1062.976562 674.679688 1064.261719 677.667969 1064.261719 680.792969 C 1064.261719 683.917969 1062.976562 686.902344 1060.710938 689.054688 L 975.402344 770.054688 C 969.867188 775.308594 966.847656 782.679688 967.101562 790.308594 L 971.050781 909.0625 C 971.152344 912.167969 969.964844 915.175781 967.769531 917.371094 C 965.570312 919.566406 962.5625 920.75 959.457031 920.644531 L 842.933594 916.644531 C 835.320312 916.382812 827.972656 919.457031 822.816406 925.0625 L 743.066406 1011.746094 C 740.976562 1014.019531 738.027344 1015.3125 734.941406 1015.3125 C 731.855469 1015.3125 728.90625 1014.019531 726.816406 1011.746094 L 647.066406 925.0625 C 641.910156 919.457031 634.5625 916.382812 626.949219 916.644531 L 510.425781 920.644531 C 507.320312 920.75 504.3125 919.566406 502.113281 917.371094 C 499.917969 915.175781 498.730469 912.167969 498.832031 909.0625 L 502.78125 790.308594 C 503.035156 782.679688 500.015625 775.308594 494.480469 770.054688 L 409.171875 689.054688 C 406.90625 686.902344 405.621094 683.917969 405.621094 680.792969 C 405.621094 677.667969 406.90625 674.679688 409.171875 672.53125 L 494.480469 591.53125 C 500.015625 586.277344 503.035156 578.90625 502.78125 571.277344 L 498.832031 452.519531 C 498.730469 449.417969 499.917969 446.410156 502.113281 444.214844 C 504.3125 442.019531 507.320312 440.832031 510.425781 440.941406 L 626.949219 444.941406 C 634.5625 445.203125 641.910156 442.125 647.066406 436.519531 L 726.816406 349.839844 C 728.90625 347.566406 731.855469 346.273438 734.941406 346.273438 C 738.027344 346.273438 740.976562 347.566406 743.066406 349.839844 Z M 743.066406 349.839844 " clip-rule="nonzero"/></clipPath><clipPath id="9f933949b7"><path d="M 672 426 L 786 426 L 786 535 L 672 535 Z M 672 426 " clip-rule="nonzero"/></clipPath><clipPath id="a9776e3b0c"><path d="M 711.109375 406.914062 L 803.382812 444.804688 L 759.226562 552.339844 L 666.953125 514.449219 Z M 711.109375 406.914062 " clip-rule="nonzero"/></clipPath><clipPath id="23f79389a1"><path d="M 711.109375 406.914062 L 803.382812 444.804688 L 759.226562 552.339844 L 666.953125 514.449219 Z M 711.109375 406.914062 " clip-rule="nonzero"/></clipPath><clipPath id="4b41603fac"><path d="M 666.835938 432.523438 L 719 432.523438 L 719 485 L 666.835938 485 Z M 666.835938 432.523438 " clip-rule="nonzero"/></clipPath><clipPath id="c0abc29248"><path d="M 406 600 L 1078 600 L 1078 1046 L 406 1046 Z M 406 600 " clip-rule="nonzero"/></clipPath><clipPath id="c0dd10e696"><path d="M 945.375 360.632812 L 1183.136719 877.023438 L 578.179688 1155.5625 L 340.417969 639.167969 Z M 945.375 360.632812 " clip-rule="nonzero"/></clipPath><clipPath id="b16c5b1045"><path d="M 945.375 360.632812 L 1183.136719 877.023438 L 578.179688 1155.5625 L 340.417969 639.167969 Z M 945.375 360.632812 " clip-rule="nonzero"/></clipPath><clipPath id="5ed1e3a0f3"><path d="M 495 241 L 1012.570312 241 L 1012.570312 856 L 495 856 Z M 495 241 " clip-rule="nonzero"/></clipPath><clipPath id="ef840cae13"><path d="M 405 651 L 1076 651 L 1076 1096 L 405 1096 Z M 405 651 " clip-rule="nonzero"/></clipPath><clipPath id="e0729bb28c"><path d="M 943.722656 411.25 L 1181.875 927.464844 L 577.128906 1206.460938 L 338.976562 690.25 Z M 943.722656 411.25 " clip-rule="nonzero"/></clipPath><clipPath id="d9a99bd644"><path d="M 943.722656 411.25 L 1181.875 927.464844 L 577.128906 1206.460938 L 338.976562 690.25 Z M 943.722656 411.25 " clip-rule="nonzero"/></clipPath><clipPath id="c87e2d099d"><path d="M 392 659 L 1087 659 L 1087 1120 L 392 1120 Z M 392 659 " clip-rule="nonzero"/></clipPath><clipPath id="04a31beb5c"><path d="M 950.21875 411.417969 L 1196.136719 945.523438 L 569.378906 1234.097656 L 323.464844 699.992188 Z M 950.21875 411.417969 " clip-rule="nonzero"/></clipPath><clipPath id="fe8a5e65fc"><path d="M 950.21875 411.417969 L 1196.136719 945.523438 L 569.378906 1234.097656 L 323.464844 699.992188 Z M 950.21875 411.417969 " clip-rule="nonzero"/></clipPath><clipPath id="abc6f152e7"><path d="M 391 698 L 1086 698 L 1086 1159 L 391 1159 Z M 391 698 " clip-rule="nonzero"/></clipPath><clipPath id="29ae35d3c6"><path d="M 949.175781 449.929688 L 1195.089844 984.035156 L 568.332031 1272.613281 L 322.417969 738.507812 Z M 949.175781 449.929688 " clip-rule="nonzero"/></clipPath><clipPath id="b7c7e393fc"><path d="M 949.175781 449.929688 L 1195.089844 984.035156 L 568.332031 1272.613281 L 322.417969 738.507812 Z M 949.175781 449.929688 " clip-rule="nonzero"/></clipPath><clipPath id="3b59103b2a"><rect x="0" width="284" y="0" height="67"/></clipPath><clipPath id="5db753e97a"><rect x="0" width="373" y="0" height="116"/></clipPath></defs><g clip-path="url(#9ec5734c21)"><g clip-path="url(#bc454c04d9)"><g transform="matrix(1, 0, 0, 1, 405, 346)"><g clip-path="url(#e7f416e42b)"><g clip-path="url(#4101d7fcf9)"><g clip-path="url(#b0c68fb8cb)"><rect x="-735" width="2160" fill="#1a3850" height="2159.999904" y="-675.999985" fill-opacity="1"/></g></g></g></g></g></g><g clip-path="url(#48d3fbd9d5)"><g clip-path="url(#ccec844c4b)"><path stroke-linecap="butt" transform="matrix(0.75, 0, 0, 0.75, 400.464844, 341.007459)" fill="none" stroke-linejoin="miter" d="M 456.802123 11.776513 L 563.135465 127.34944 C 570.010466 134.823399 579.807342 138.927566 589.958384 138.578608 L 745.322981 133.245274 C 749.463606 133.099441 753.474023 134.682774 756.406315 137.609858 C 759.333399 140.536941 760.916732 144.547358 760.781316 148.682775 L 755.51569 307.026539 C 755.177149 317.198415 759.203191 327.026541 766.583399 334.03175 L 880.328201 442.031759 C 883.349035 444.896342 885.062576 448.880718 885.062576 453.047385 C 885.062576 457.214052 883.349035 461.193219 880.328201 464.063011 L 766.583399 572.06302 C 759.203191 579.068229 755.177149 588.896355 755.51569 599.068231 L 760.781316 757.406786 C 760.916732 761.547411 759.333399 765.557828 756.406315 768.484912 C 753.474023 771.411996 749.463606 772.990121 745.322981 772.849496 L 589.958384 767.516162 C 579.807342 767.167204 570.010466 771.266162 563.135465 778.740121 L 456.802123 894.318256 C 454.015664 897.349506 450.083372 899.073465 445.968789 899.073465 C 441.854205 899.073465 437.921913 897.349506 435.135454 894.318256 L 328.802112 778.740121 C 321.927111 771.266162 312.130235 767.167204 301.979193 767.516162 L 146.614596 772.849496 C 142.473971 772.990121 138.463554 771.411996 135.531262 768.484912 C 132.604178 765.557828 131.020845 761.547411 131.156261 757.406786 L 136.421887 599.068231 C 136.760429 588.896355 132.734387 579.068229 125.354178 572.06302 L 11.609376 464.063011 C 8.588543 461.193219 6.875001 457.214052 6.875001 453.047385 C 6.875001 448.880718 8.588543 444.896342 11.609376 442.031759 L 125.354178 334.03175 C 132.734387 327.026541 136.760429 317.198415 136.421887 307.026539 L 131.156261 148.682775 C 131.020845 144.547358 132.604178 140.536941 135.531262 137.609858 C 138.463554 134.682774 142.473971 133.099441 146.614596 133.245274 L 301.979193 138.578608 C 312.130235 138.927566 321.927111 134.823399 328.802112 127.34944 L 435.135454 11.776513 C 437.921913 8.745263 441.854205 7.021305 445.968789 7.021305 C 450.083372 7.021305 454.015664 8.745263 456.802123 11.776513 Z M 456.802123 11.776513 " stroke="#bbcbd1" stroke-width="24" stroke-opacity="1" stroke-miterlimit="4"/></g></g><g clip-path="url(#9f933949b7)"><g clip-path="url(#a9776e3b0c)"><g clip-path="url(#23f79389a1)"><path fill="#bbcbd1" d="M 759.007812 426.945312 C 763.917969 440.910156 763.558594 455.980469 757.929688 469.691406 C 745.273438 500.511719 709.699219 515.203125 678.625 502.441406 C 676.710938 501.65625 674.816406 500.765625 672.976562 499.78125 C 679.242188 513.417969 690.269531 524.003906 704.289062 529.761719 C 734.390625 542.121094 768.847656 527.894531 781.105469 498.050781 C 791.667969 472.324219 782.164062 442.269531 759.007812 426.945312 Z M 759.007812 426.945312 " fill-opacity="1" fill-rule="nonzero"/></g></g></g><g clip-path="url(#4b41603fac)"><path fill="#bbcbd1" d="M 693.320312 446.40625 C 693.398438 447.128906 693.539062 447.839844 693.738281 448.539062 C 693.9375 449.238281 694.191406 449.917969 694.507812 450.570312 C 694.820312 451.226562 695.1875 451.851562 695.609375 452.445312 C 696.027344 453.039062 696.496094 453.589844 697.011719 454.105469 C 697.523438 454.621094 698.078125 455.085938 698.671875 455.507812 C 699.265625 455.925781 699.886719 456.292969 700.542969 456.609375 C 701.199219 456.921875 701.875 457.179688 702.574219 457.378906 C 703.273438 457.578125 703.984375 457.71875 704.707031 457.796875 C 709.308594 458.253906 713.917969 458.464844 718.542969 458.425781 C 713.917969 458.390625 709.308594 458.597656 704.707031 459.058594 C 703.984375 459.136719 703.273438 459.277344 702.574219 459.476562 C 701.875 459.675781 701.199219 459.929688 700.542969 460.246094 C 699.886719 460.558594 699.265625 460.925781 698.671875 461.347656 C 698.078125 461.765625 697.523438 462.234375 697.011719 462.75 C 696.496094 463.261719 696.027344 463.816406 695.609375 464.410156 C 695.1875 465.003906 694.820312 465.625 694.507812 466.28125 C 694.191406 466.9375 693.9375 467.613281 693.738281 468.3125 C 693.539062 469.011719 693.398438 469.722656 693.320312 470.445312 C 692.859375 475.046875 692.652344 479.65625 692.6875 484.28125 C 692.726562 479.65625 692.515625 475.046875 692.058594 470.445312 C 691.980469 469.722656 691.839844 469.011719 691.640625 468.3125 C 691.441406 467.613281 691.183594 466.9375 690.871094 466.28125 C 690.554688 465.625 690.1875 465.003906 689.769531 464.410156 C 689.347656 463.816406 688.882812 463.261719 688.367188 462.75 C 687.855469 462.234375 687.300781 461.765625 686.707031 461.347656 C 686.113281 460.925781 685.488281 460.558594 684.832031 460.246094 C 684.179688 459.929688 683.5 459.675781 682.800781 459.476562 C 682.101562 459.277344 681.390625 459.136719 680.667969 459.058594 C 676.070312 458.597656 671.457031 458.390625 666.835938 458.425781 C 671.457031 458.464844 676.070312 458.253906 680.667969 457.796875 C 681.390625 457.71875 682.101562 457.578125 682.800781 457.378906 C 683.5 457.179688 684.179688 456.921875 684.832031 456.609375 C 685.488281 456.292969 686.113281 455.925781 686.707031 455.507812 C 687.300781 455.085938 687.851562 454.621094 688.367188 454.105469 C 688.882812 453.589844 689.347656 453.039062 689.769531 452.445312 C 690.1875 451.851562 690.554688 451.226562 690.871094 450.570312 C 691.183594 449.917969 691.441406 449.238281 691.640625 448.539062 C 691.839844 447.839844 691.980469 447.128906 692.058594 446.40625 C 692.515625 441.808594 692.726562 437.195312 692.6875 432.574219 C 692.652344 437.195312 692.859375 441.808594 693.320312 446.40625 Z M 693.320312 446.40625 " fill-opacity="1" fill-rule="nonzero"/></g><path fill="#bbcbd1" d="M 722.183594 465.425781 C 722.265625 466.164062 722.464844 466.867188 722.785156 467.535156 C 723.105469 468.203125 723.527344 468.800781 724.050781 469.324219 C 724.574219 469.847656 725.171875 470.269531 725.839844 470.589844 C 726.507812 470.910156 727.210938 471.109375 727.945312 471.191406 C 730.273438 471.421875 732.609375 471.527344 734.945312 471.511719 C 732.609375 471.492188 730.273438 471.597656 727.945312 471.828125 C 727.210938 471.910156 726.507812 472.109375 725.839844 472.429688 C 725.171875 472.75 724.574219 473.171875 724.050781 473.695312 C 723.527344 474.21875 723.105469 474.816406 722.785156 475.484375 C 722.464844 476.152344 722.265625 476.855469 722.183594 477.59375 C 721.953125 479.917969 721.84375 482.253906 721.863281 484.59375 C 721.882812 482.253906 721.777344 479.917969 721.546875 477.59375 C 721.464844 476.855469 721.265625 476.152344 720.945312 475.484375 C 720.625 474.816406 720.203125 474.21875 719.675781 473.695312 C 719.152344 473.171875 718.558594 472.75 717.890625 472.429688 C 717.222656 472.109375 716.519531 471.910156 715.78125 471.828125 C 713.453125 471.597656 711.121094 471.492188 708.78125 471.511719 C 711.121094 471.527344 713.453125 471.421875 715.78125 471.191406 C 716.519531 471.109375 717.222656 470.910156 717.890625 470.589844 C 718.558594 470.269531 719.152344 469.847656 719.675781 469.324219 C 720.203125 468.800781 720.625 468.203125 720.945312 467.535156 C 721.265625 466.867188 721.464844 466.164062 721.546875 465.425781 C 721.777344 463.101562 721.882812 460.765625 721.867188 458.425781 C 721.847656 460.765625 721.953125 463.101562 722.183594 465.425781 Z M 722.183594 465.425781 " fill-opacity="1" fill-rule="nonzero"/><path fill="#bbcbd1" d="M 712.347656 439.609375 C 712.398438 440.058594 712.519531 440.488281 712.714844 440.898438 C 712.910156 441.304688 713.167969 441.667969 713.488281 441.988281 C 713.808594 442.308594 714.171875 442.566406 714.582031 442.761719 C 714.988281 442.957031 715.417969 443.078125 715.867188 443.128906 C 717.289062 443.269531 718.714844 443.335938 720.140625 443.324219 C 718.714844 443.3125 717.289062 443.375 715.867188 443.519531 C 715.417969 443.566406 714.988281 443.691406 714.582031 443.886719 C 714.171875 444.082031 713.808594 444.339844 713.488281 444.660156 C 713.167969 444.980469 712.910156 445.34375 712.714844 445.75 C 712.519531 446.160156 712.398438 446.585938 712.347656 447.039062 C 712.207031 448.457031 712.140625 449.882812 712.152344 451.3125 C 712.164062 449.882812 712.101562 448.457031 711.960938 447.039062 C 711.910156 446.585938 711.789062 446.160156 711.59375 445.75 C 711.398438 445.34375 711.140625 444.980469 710.820312 444.660156 C 710.5 444.339844 710.136719 444.082031 709.726562 443.886719 C 709.320312 443.691406 708.890625 443.566406 708.441406 443.519531 C 707.019531 443.375 705.59375 443.3125 704.164062 443.324219 C 705.59375 443.335938 707.019531 443.269531 708.441406 443.128906 C 708.890625 443.078125 709.320312 442.957031 709.726562 442.761719 C 710.132812 442.566406 710.5 442.308594 710.816406 441.988281 C 711.136719 441.667969 711.394531 441.304688 711.589844 440.894531 C 711.785156 440.488281 711.910156 440.058594 711.957031 439.609375 C 712.101562 438.1875 712.164062 436.761719 712.152344 435.335938 C 712.140625 436.761719 712.207031 438.1875 712.347656 439.609375 Z M 712.347656 439.609375 " fill-opacity="1" fill-rule="nonzero"/><g clip-path="url(#c0abc29248)"><g clip-path="url(#c0dd10e696)"><g clip-path="url(#b16c5b1045)"><path fill="#1e1e1c" d="M 1067.777344 631.011719 C 1033.929688 708.574219 973.710938 770.230469 896.742188 805.667969 C 723.746094 885.320312 517.664062 808.21875 437.355469 633.796875 C 432.402344 623.039062 427.960938 611.941406 424.089844 600.644531 C 397.183594 682.125 402.09375 769.371094 438.328125 848.066406 C 516.125 1017.027344 715.714844 1091.730469 883.25 1014.59375 C 1027.664062 948.101562 1104.953125 785.335938 1067.777344 631.011719 Z M 1067.777344 631.011719 " fill-opacity="1" fill-rule="nonzero"/></g></g></g><g clip-path="url(#5ed1e3a0f3)"><path fill="#1e1e1c" d="M 564.613281 241.382812 C 560.871094 247.875 555.628906 258.136719 562.109375 265.144531 C 564.597656 275.117188 531.441406 291.453125 533.578125 310.613281 C 532.789062 321.363281 538.53125 329.875 536.636719 341.199219 C 537.554688 354.859375 537.015625 368.554688 537.15625 382.230469 C 518.496094 387.230469 533.640625 404.988281 534.296875 417.089844 C 540.328125 427.421875 535.066406 437.464844 526.414062 441.132812 C 525.503906 450.285156 532.640625 466.605469 534.769531 470.558594 C 537.515625 474.164062 535.085938 486.421875 532.328125 489.601562 C 540.175781 496.527344 535.222656 511.6875 537.15625 522.347656 C 537.4375 536.574219 535.265625 550.578125 535.964844 564.855469 C 532.875 575.738281 536.253906 589.292969 533.652344 600.886719 C 533.964844 626.375 531.566406 651.53125 532.382812 677.054688 C 529.734375 706.34375 532.621094 736.058594 528.804688 765.382812 C 517.378906 767.5 503.777344 767.308594 495.382812 776.125 C 501.234375 787.585938 487.695312 812.304688 505.824219 814.320312 C 522.191406 816.1875 513.007812 834.515625 516.195312 845.355469 C 512.417969 861.238281 530.914062 852.875 540.007812 854.902344 L 760.363281 854.902344 C 770.304688 851.917969 781.746094 856.464844 793.78125 854.902344 C 805.101562 853.253906 813.144531 855.460938 825.742188 854.902344 L 1012.210938 854.902344 C 1012.355469 825.097656 1012.007812 794.238281 1012.210938 765.382812 C 993.703125 761.515625 969.042969 762.414062 950.140625 759.414062 C 937.671875 759.75 923.734375 758.59375 913.140625 757.027344 C 900.832031 755.847656 914.863281 740.703125 913.140625 733.152344 C 914.390625 721.035156 920.105469 713.535156 917.914062 700.925781 C 919.691406 669.457031 895.324219 645.898438 874.601562 625.386719 C 848.640625 602.804688 819.988281 582.347656 787.808594 569.628906 C 789.707031 566.296875 760.421875 561.09375 774.679688 545.757812 C 786.148438 538.007812 773.339844 516.804688 764.621094 519.828125 C 751.605469 533.359375 762.601562 538.976562 762.519531 536.582031 C 754.269531 542.921875 774.257812 552.878906 760.355469 563.660156 C 776.753906 562.175781 743.855469 566.855469 738.816406 573.238281 C 697.058594 592.652344 662.597656 624.921875 633.832031 660.34375 C 627.285156 670.238281 622.738281 679.652344 623.351562 691.851562 C 620.914062 712.46875 630.070312 733.332031 633.832031 749.867188 C 636.34375 761.527344 622.15625 756.492188 614.734375 758.222656 C 601.300781 762.144531 601.832031 751.03125 602.800781 741.097656 C 602.9375 719.46875 600.109375 699.066406 601.324219 678.082031 C 600.195312 662.125 600.808594 644.171875 598.921875 629.609375 C 599.679688 586.089844 594.683594 542.738281 595.636719 499.207031 C 600.351562 489.003906 597.160156 479.394531 598.816406 465.800781 C 601.644531 458.183594 606.082031 446.800781 602.800781 437.136719 C 585.882812 435.097656 598.253906 417.214844 599.585938 407.027344 C 607.21875 393.816406 598.148438 386.09375 594.445312 376.628906 C 594.632812 357.425781 593.785156 337.816406 596.832031 318.96875 C 604.371094 297.632812 575.078125 281.390625 568.183594 264.429688 C 577.238281 258.339844 568.082031 249.183594 566.992188 242.164062 C 567.667969 240.429688 565.175781 241.867188 564.605469 241.382812 Z M 564.945312 405.054688 C 574 415.59375 574.484375 440.753906 559.894531 431.222656 C 559.488281 422.316406 559.949219 412.730469 564.945312 405.054688 Z M 584.902344 410.871094 C 586.347656 417.945312 587.171875 444.292969 580.128906 429.140625 C 579.320312 422.277344 582.707031 416.433594 584.902344 410.871094 Z M 767.527344 494.425781 C 765.675781 501.671875 762.105469 509.152344 766.332031 514.71875 C 774.09375 518.011719 770.054688 498.449219 767.527344 494.425781 Z M 594.453125 495.621094 C 596.0625 495.25 593.945312 496.960938 594.453125 495.621094 Z M 592.066406 499.796875 C 587.773438 500.890625 590.882812 500.097656 592.066406 499.796875 Z M 594.453125 540.976562 C 595.054688 542.875 590.691406 548.441406 594.453125 540.976562 Z M 772.300781 546.945312 C 767.332031 548.816406 770.699219 551.085938 772.300781 546.945312 Z M 594.453125 580.367188 C 593.746094 587.347656 592.933594 581.09375 594.453125 580.367188 Z M 605.195312 761.796875 C 606.972656 760.667969 609.652344 765.90625 605.195312 761.796875 Z M 607.582031 764.183594 C 609.484375 765.222656 606.488281 768.960938 607.582031 764.183594 Z M 607.582031 764.183594 " fill-opacity="1" fill-rule="nonzero"/></g><g clip-path="url(#ef840cae13)"><g clip-path="url(#e0729bb28c)"><g clip-path="url(#d9a99bd644)"><path fill="#ffffff" d="M 1066.328125 681.539062 C 1032.539062 759.128906 972.367188 820.828125 895.425781 856.324219 C 722.488281 936.109375 516.351562 859.164062 435.910156 684.800781 C 430.949219 674.046875 426.496094 662.957031 422.621094 651.660156 C 395.777344 733.160156 400.753906 820.402344 437.046875 899.070312 C 514.96875 1067.972656 714.617188 1142.523438 882.09375 1065.261719 C 1026.457031 998.660156 1103.621094 835.832031 1066.328125 681.539062 Z M 1066.328125 681.539062 " fill-opacity="1" fill-rule="nonzero"/></g></g></g><g clip-path="url(#c87e2d099d)"><g clip-path="url(#04a31beb5c)"><g clip-path="url(#fe8a5e65fc)"><path fill="#1e1e1c" d="M 1076.925781 691.304688 C 1041.886719 771.597656 979.550781 835.417969 899.875 872.101562 C 720.792969 954.558594 507.464844 874.746094 424.332031 694.1875 C 419.207031 683.050781 414.609375 671.566406 410.601562 659.871094 C 382.75 744.214844 387.832031 834.53125 425.339844 915.996094 C 505.871094 1090.898438 712.480469 1168.226562 885.90625 1088.378906 C 1035.402344 1019.546875 1115.40625 851.054688 1076.925781 691.304688 Z M 1076.925781 691.304688 " fill-opacity="1" fill-rule="nonzero"/></g></g></g><g clip-path="url(#abc6f152e7)"><g clip-path="url(#29ae35d3c6)"><g clip-path="url(#b7c7e393fc)"><path fill="#ffffff" d="M 1075.878906 729.820312 C 1040.839844 810.113281 978.503906 873.933594 898.828125 910.617188 C 719.75 993.070312 506.421875 913.257812 423.285156 732.703125 C 418.160156 721.566406 413.5625 710.082031 409.554688 698.386719 C 381.703125 782.730469 386.785156 873.046875 424.292969 954.507812 C 504.824219 1129.410156 711.433594 1206.742188 884.863281 1126.890625 C 1034.355469 1058.0625 1114.359375 889.570312 1075.878906 729.820312 Z M 1075.878906 729.820312 " fill-opacity="1" fill-rule="nonzero"/></g></g></g><g transform="matrix(1, 0, 0, 1, 608, 1127)"><g clip-path="url(#3b59103b2a)"><g fill="#1a3850" fill-opacity="1"><g transform="translate(1.328106, 48.449332)"><g><path d="M 4.484375 0 L 4.484375 -30.796875 L 16.234375 -30.796875 C 18.367188 -30.796875 20.226562 -30.390625 21.8125 -29.578125 C 23.394531 -28.773438 24.625 -27.640625 25.5 -26.171875 C 26.382812 -24.703125 26.828125 -22.941406 26.828125 -20.890625 C 26.828125 -18.398438 26.179688 -16.335938 24.890625 -14.703125 C 23.597656 -13.078125 21.828125 -11.988281 19.578125 -11.4375 L 27.3125 0 L 22.65625 0 L 15.125 -11.046875 L 8.359375 -11.046875 L 8.359375 0 Z M 8.359375 -14.734375 L 15.796875 -14.734375 C 18.046875 -14.734375 19.785156 -15.269531 21.015625 -16.34375 C 22.253906 -17.414062 22.875 -18.929688 22.875 -20.890625 C 22.875 -22.859375 22.253906 -24.382812 21.015625 -25.46875 C 19.785156 -26.550781 18.046875 -27.09375 15.796875 -27.09375 L 8.359375 -27.09375 Z M 8.359375 -14.734375 "/></g></g></g><g fill="#1a3850" fill-opacity="1"><g transform="translate(31.270929, 48.449332)"><g><path d="M 4.484375 0 L 4.484375 -30.796875 L 23.1875 -30.796875 L 23.1875 -27.1875 L 8.359375 -27.1875 L 8.359375 -17.46875 L 22.078125 -17.46875 L 22.078125 -13.90625 L 8.359375 -13.90625 L 8.359375 -3.609375 L 23.65625 -3.609375 L 23.65625 0 Z M 4.484375 0 "/></g></g></g><g fill="#1a3850" fill-opacity="1"><g transform="translate(57.784186, 48.449332)"><g><path d="M 4.484375 0 L 4.484375 -30.796875 L 23.1875 -30.796875 L 23.1875 -27.1875 L 8.359375 -27.1875 L 8.359375 -17.46875 L 22.078125 -17.46875 L 22.078125 -13.90625 L 8.359375 -13.90625 L 8.359375 -3.609375 L 23.65625 -3.609375 L 23.65625 0 Z M 4.484375 0 "/></g></g></g><g fill="#1a3850" fill-opacity="1"><g transform="translate(84.297444, 48.449332)"><g><path d="M 4.484375 0 L 4.484375 -30.796875 L 8.359375 -30.796875 L 8.359375 -3.6875 L 23.3125 -3.6875 L 23.3125 0 Z M 4.484375 0 "/></g></g></g><g fill="#1a3850" fill-opacity="1"><g transform="translate(108.963991, 48.449332)"><g/></g></g><g fill="#1a3850" fill-opacity="1"><g transform="translate(119.868287, 48.449332)"><g><path d="M 18.46875 0.578125 C 15.363281 0.578125 12.609375 -0.101562 10.203125 -1.46875 C 7.796875 -2.832031 5.914062 -4.71875 4.5625 -7.125 C 3.21875 -9.53125 2.546875 -12.285156 2.546875 -15.390625 C 2.546875 -18.523438 3.21875 -21.285156 4.5625 -23.671875 C 5.914062 -26.066406 7.796875 -27.945312 10.203125 -29.3125 C 12.609375 -30.675781 15.363281 -31.359375 18.46875 -31.359375 C 21.613281 -31.359375 24.378906 -30.675781 26.765625 -29.3125 C 29.148438 -27.945312 31.023438 -26.066406 32.390625 -23.671875 C 33.753906 -21.285156 34.4375 -18.523438 34.4375 -15.390625 C 34.4375 -12.960938 34.007812 -10.734375 33.15625 -8.703125 C 32.3125 -6.679688 31.109375 -4.953125 29.546875 -3.515625 C 27.992188 -2.078125 26.179688 -1.007812 24.109375 -0.3125 L 24.453125 0.609375 C 24.835938 1.460938 25.253906 2.128906 25.703125 2.609375 C 26.160156 3.097656 26.75 3.4375 27.46875 3.625 C 28.1875 3.820312 29.117188 3.921875 30.265625 3.921875 L 32.859375 3.921875 L 32.859375 7.609375 L 29.953125 7.609375 C 27.640625 7.609375 25.75 7.160156 24.28125 6.265625 C 22.8125 5.367188 21.664062 3.941406 20.84375 1.984375 L 20.234375 0.484375 C 19.941406 0.515625 19.65625 0.535156 19.375 0.546875 C 19.09375 0.566406 18.789062 0.578125 18.46875 0.578125 Z M 6.515625 -15.390625 C 6.515625 -13.015625 7.019531 -10.914062 8.03125 -9.09375 C 9.039062 -7.28125 10.445312 -5.859375 12.25 -4.828125 C 14.050781 -3.804688 16.125 -3.296875 18.46875 -3.296875 C 20.84375 -3.296875 22.925781 -3.804688 24.71875 -4.828125 C 26.507812 -5.859375 27.910156 -7.28125 28.921875 -9.09375 C 29.929688 -10.914062 30.4375 -13.015625 30.4375 -15.390625 C 30.4375 -17.796875 29.929688 -19.898438 28.921875 -21.703125 C 27.910156 -23.503906 26.507812 -24.914062 24.71875 -25.9375 C 22.925781 -26.96875 20.84375 -27.484375 18.46875 -27.484375 C 16.125 -27.484375 14.050781 -26.96875 12.25 -25.9375 C 10.445312 -24.914062 9.039062 -23.503906 8.03125 -21.703125 C 7.019531 -19.898438 6.515625 -17.796875 6.515625 -15.390625 Z M 6.515625 -15.390625 "/></g></g></g><g fill="#1a3850" fill-opacity="1"><g transform="translate(156.802168, 48.449332)"><g><path d="M 16.015625 0.53125 C 12.285156 0.53125 9.375 -0.625 7.28125 -2.9375 C 5.1875 -5.257812 4.140625 -8.457031 4.140625 -12.53125 L 4.140625 -30.796875 L 7.96875 -30.796875 L 7.96875 -12.796875 C 7.96875 -9.660156 8.65625 -7.285156 10.03125 -5.671875 C 11.40625 -4.054688 13.398438 -3.25 16.015625 -3.25 C 21.378906 -3.25 24.0625 -6.429688 24.0625 -12.796875 L 24.0625 -30.796875 L 27.9375 -30.796875 L 27.9375 -12.53125 C 27.9375 -8.457031 26.878906 -5.257812 24.765625 -2.9375 C 22.648438 -0.625 19.734375 0.53125 16.015625 0.53125 Z M 16.015625 0.53125 "/></g></g></g><g fill="#1a3850" fill-opacity="1"><g transform="translate(188.85551, 48.449332)"><g><path d="M 4.484375 0 L 4.484375 -30.796875 L 16.234375 -30.796875 C 18.367188 -30.796875 20.226562 -30.390625 21.8125 -29.578125 C 23.394531 -28.773438 24.625 -27.640625 25.5 -26.171875 C 26.382812 -24.703125 26.828125 -22.941406 26.828125 -20.890625 C 26.828125 -18.398438 26.179688 -16.335938 24.890625 -14.703125 C 23.597656 -13.078125 21.828125 -11.988281 19.578125 -11.4375 L 27.3125 0 L 22.65625 0 L 15.125 -11.046875 L 8.359375 -11.046875 L 8.359375 0 Z M 8.359375 -14.734375 L 15.796875 -14.734375 C 18.046875 -14.734375 19.785156 -15.269531 21.015625 -16.34375 C 22.253906 -17.414062 22.875 -18.929688 22.875 -20.890625 C 22.875 -22.859375 22.253906 -24.382812 21.015625 -25.46875 C 19.785156 -26.550781 18.046875 -27.09375 15.796875 -27.09375 L 8.359375 -27.09375 Z M 8.359375 -14.734375 "/></g></g></g><g fill="#1a3850" fill-opacity="1"><g transform="translate(218.798333, 48.449332)"><g><path d="M 0.75 0 L 13.421875 -30.796875 L 17.015625 -30.796875 L 29.6875 0 L 25.59375 0 L 22.703125 -7 L 7.703125 -7 L 4.875 0 Z M 9.1875 -10.59375 L 21.25 -10.59375 L 15.21875 -25.375 Z M 9.1875 -10.59375 "/></g></g></g><g fill="#1a3850" fill-opacity="1"><g transform="translate(249.224828, 48.449332)"><g><path d="M 4.484375 0 L 4.484375 -30.796875 L 8.140625 -30.796875 L 25.15625 -6.6875 L 25.15625 -30.796875 L 28.9375 -30.796875 L 28.9375 0 L 25.328125 0 L 8.3125 -24.109375 L 8.3125 0 Z M 4.484375 0 "/></g></g></g></g></g><g transform="matrix(1, 0, 0, 1, 566, 1010)"><g clip-path="url(#5db753e97a)"><g fill="#1a3850" fill-opacity="1"><g transform="translate(0.613759, 88.049573)"><g><path d="M 67.96875 0.78125 L 80.0625 12.3125 C 74.84375 17.769531 68.910156 20.535156 62.265625 20.609375 C 59.273438 20.609375 56.082031 20.066406 52.6875 18.984375 C 49.289062 17.898438 45.910156 16.59375 42.546875 15.0625 C 39.191406 13.53125 35.984375 12.054688 32.921875 10.640625 C 29.859375 9.222656 27.171875 8.175781 24.859375 7.5 C 20.523438 6.757812 16.382812 8.066406 12.4375 11.421875 C 12.65625 9.109375 13.753906 6.71875 15.734375 4.25 C 17.710938 1.789062 20.378906 0.148438 23.734375 -0.671875 C 19.484375 -2.015625 15.734375 -4.253906 12.484375 -7.390625 C 9.234375 -10.523438 6.691406 -14.703125 4.859375 -19.921875 C 3.035156 -25.148438 2.125 -31.570312 2.125 -39.1875 C 2.125 -49.125 3.65625 -57.078125 6.71875 -63.046875 C 9.78125 -69.015625 13.867188 -73.304688 18.984375 -75.921875 C 24.097656 -78.535156 29.828125 -79.84375 36.171875 -79.84375 C 42.441406 -79.84375 48.132812 -78.5 53.25 -75.8125 C 58.363281 -73.125 62.453125 -68.789062 65.515625 -62.8125 C 68.578125 -56.84375 70.109375 -48.96875 70.109375 -39.1875 C 70.109375 -31.726562 69.226562 -25.421875 67.46875 -20.265625 C 65.71875 -15.117188 63.289062 -10.957031 60.1875 -7.78125 C 57.09375 -4.613281 53.488281 -2.316406 49.375 -0.890625 C 45.269531 0.523438 40.867188 1.234375 36.171875 1.234375 C 36.171875 1.234375 36.972656 1.734375 38.578125 2.734375 C 40.179688 3.742188 42.304688 4.753906 44.953125 5.765625 C 47.609375 6.773438 50.503906 7.28125 53.640625 7.28125 C 56.847656 7.28125 59.5 6.738281 61.59375 5.65625 C 63.6875 4.570312 65.269531 3.488281 66.34375 2.40625 C 67.425781 1.320312 67.96875 0.78125 67.96875 0.78125 Z M 16.90625 -35.953125 C 17.957031 -32.140625 19.226562 -28.535156 20.71875 -25.140625 C 22.207031 -21.742188 24.128906 -18.71875 26.484375 -16.0625 C 28.835938 -13.414062 31.765625 -11.328125 35.265625 -9.796875 C 38.773438 -8.265625 43.070312 -7.5 48.15625 -7.5 C 51.507812 -7.5 53.835938 -8.675781 55.140625 -11.03125 C 56.453125 -13.382812 57.109375 -16.316406 57.109375 -19.828125 C 57.109375 -24.753906 56.898438 -29.625 56.484375 -34.4375 C 56.078125 -39.25 55.203125 -43.742188 53.859375 -47.921875 C 52.515625 -52.109375 50.535156 -55.785156 47.921875 -58.953125 C 45.316406 -62.128906 41.828125 -64.578125 37.453125 -66.296875 C 33.085938 -68.015625 27.617188 -68.757812 21.046875 -68.53125 C 16.117188 -68.3125 13.734375 -64.019531 13.890625 -55.65625 C 13.890625 -52.894531 14.148438 -49.832031 14.671875 -46.46875 C 15.191406 -43.113281 15.9375 -39.609375 16.90625 -35.953125 Z M 16.90625 -35.953125 "/></g></g></g><g fill="#1a3850" fill-opacity="1"><g transform="translate(77.883939, 88.049573)"><g><path d="M 47.921875 -78.28125 L 66.75 -78.28125 C 65.550781 -76.113281 64.691406 -74.054688 64.171875 -72.109375 C 63.648438 -70.171875 63.332031 -68.585938 63.21875 -67.359375 C 63.101562 -66.128906 63.046875 -65.515625 63.046875 -65.515625 C 63.046875 -65.515625 63.046875 -64.445312 63.046875 -62.3125 C 63.046875 -60.1875 63.046875 -57.460938 63.046875 -54.140625 C 63.046875 -50.816406 63.046875 -47.328125 63.046875 -43.671875 C 63.046875 -40.015625 63.046875 -36.617188 63.046875 -33.484375 C 63.046875 -30.347656 63.046875 -27.957031 63.046875 -26.3125 C 63.046875 -24.675781 62.820312 -22.695312 62.375 -20.375 C 61.925781 -18.0625 61.101562 -15.671875 59.90625 -13.203125 C 58.71875 -10.742188 57.039062 -8.429688 54.875 -6.265625 C 52.707031 -4.109375 49.90625 -2.351562 46.46875 -1 C 43.039062 0.34375 38.863281 1.015625 33.9375 1.015625 C 28.113281 1.015625 23.332031 0.210938 19.59375 -1.390625 C 15.863281 -3.003906 12.972656 -5.207031 10.921875 -8 C 8.867188 -10.800781 7.429688 -13.957031 6.609375 -17.46875 C 5.785156 -20.976562 5.335938 -24.632812 5.265625 -28.4375 L 5.265625 -65.625 C 5.191406 -65.925781 5.097656 -66.800781 4.984375 -68.25 C 4.867188 -69.707031 4.515625 -71.347656 3.921875 -73.171875 C 3.328125 -75.003906 2.359375 -76.707031 1.015625 -78.28125 L 25.078125 -78.28125 C 23.734375 -76.1875 22.78125 -74.148438 22.21875 -72.171875 C 21.664062 -70.191406 21.332031 -68.585938 21.21875 -67.359375 C 21.101562 -66.128906 21.046875 -65.515625 21.046875 -65.515625 C 21.128906 -59.015625 21.207031 -52.609375 21.28125 -46.296875 C 21.351562 -39.992188 21.390625 -33.410156 21.390625 -26.546875 C 21.390625 -21.984375 22.429688 -18.285156 24.515625 -15.453125 C 26.609375 -12.617188 29.203125 -10.546875 32.296875 -9.234375 C 35.398438 -7.929688 38.445312 -7.28125 41.4375 -7.28125 C 43.75 -7.28125 45.59375 -7.914062 46.96875 -9.1875 C 48.351562 -10.457031 49.398438 -12.078125 50.109375 -14.046875 C 50.816406 -16.023438 51.28125 -18.078125 51.5 -20.203125 C 51.726562 -22.335938 51.84375 -24.300781 51.84375 -26.09375 C 51.84375 -27.207031 51.84375 -28.957031 51.84375 -31.34375 C 51.84375 -33.738281 51.84375 -36.445312 51.84375 -39.46875 C 51.84375 -42.5 51.84375 -45.539062 51.84375 -48.59375 C 51.84375 -51.65625 51.84375 -54.507812 51.84375 -57.15625 C 51.84375 -59.8125 51.84375 -61.941406 51.84375 -63.546875 C 51.84375 -65.148438 51.84375 -65.953125 51.84375 -65.953125 C 51.84375 -66.484375 51.726562 -67.457031 51.5 -68.875 C 51.28125 -70.289062 50.890625 -71.859375 50.328125 -73.578125 C 49.773438 -75.296875 48.972656 -76.863281 47.921875 -78.28125 Z M 47.921875 -78.28125 "/></g></g></g><g fill="#1a3850" fill-opacity="1"><g transform="translate(151.122642, 88.049573)"><g><path d="M 37.40625 -39.53125 C 38.226562 -38.113281 39.457031 -36.0625 41.09375 -33.375 C 42.738281 -30.6875 44.601562 -27.71875 46.6875 -24.46875 C 48.78125 -21.21875 50.984375 -17.988281 53.296875 -14.78125 C 55.617188 -11.570312 57.914062 -8.675781 60.1875 -6.09375 C 62.46875 -3.519531 64.539062 -1.601562 66.40625 -0.34375 C 66.40625 -0.34375 65.394531 -0.191406 63.375 0.109375 C 61.363281 0.410156 59.085938 0.5625 56.546875 0.5625 C 54.828125 0.5625 53.164062 0.429688 51.5625 0.171875 C 49.957031 -0.0859375 48.632812 -0.519531 47.59375 -1.125 C 46.769531 -1.644531 45.648438 -2.78125 44.234375 -4.53125 C 42.816406 -6.289062 41.210938 -8.4375 39.421875 -10.96875 C 37.628906 -13.507812 35.78125 -16.21875 33.875 -19.09375 C 31.96875 -21.96875 30.132812 -24.765625 28.375 -27.484375 C 26.625 -30.210938 25.078125 -32.617188 23.734375 -34.703125 C 22.390625 -36.796875 21.421875 -38.332031 20.828125 -39.3125 L 20.828125 -12.984375 C 20.828125 -12.984375 20.882812 -12.3125 21 -10.96875 C 21.113281 -9.625 21.46875 -7.960938 22.0625 -5.984375 C 22.65625 -4.015625 23.625 -2.132812 24.96875 -0.34375 L 1.6875 -0.34375 C 3.03125 -1.90625 4 -3.597656 4.59375 -5.421875 C 5.1875 -7.253906 5.554688 -8.878906 5.703125 -10.296875 C 5.859375 -11.722656 5.9375 -12.582031 5.9375 -12.875 L 5.9375 -65.625 C 5.9375 -66 5.859375 -66.894531 5.703125 -68.3125 C 5.554688 -69.726562 5.1875 -71.347656 4.59375 -73.171875 C 4 -75.003906 3.03125 -76.707031 1.6875 -78.28125 L 34.046875 -78.28125 C 34.046875 -78.28125 34.734375 -78.222656 36.109375 -78.109375 C 37.492188 -77.992188 39.226562 -77.691406 41.3125 -77.203125 C 43.40625 -76.722656 45.476562 -75.90625 47.53125 -74.75 C 49.582031 -73.59375 51.316406 -71.96875 52.734375 -69.875 C 54.160156 -67.789062 54.875 -65.101562 54.875 -61.8125 C 54.875 -57.78125 54.296875 -54.421875 53.140625 -51.734375 C 51.984375 -49.046875 50.488281 -46.863281 48.65625 -45.1875 C 46.820312 -43.507812 44.914062 -42.238281 42.9375 -41.375 C 40.96875 -40.519531 39.125 -39.90625 37.40625 -39.53125 Z M 25.640625 -43.34375 C 25.640625 -43.34375 26.144531 -43.394531 27.15625 -43.5 C 28.164062 -43.613281 29.414062 -43.910156 30.90625 -44.390625 C 32.394531 -44.878906 33.882812 -45.703125 35.375 -46.859375 C 36.875 -48.015625 38.128906 -49.597656 39.140625 -51.609375 C 40.148438 -53.628906 40.65625 -56.210938 40.65625 -59.359375 C 40.65625 -61.597656 40.148438 -63.441406 39.140625 -64.890625 C 38.128906 -66.347656 36.875 -67.46875 35.375 -68.25 C 33.882812 -69.039062 32.394531 -69.601562 30.90625 -69.9375 C 29.414062 -70.269531 28.164062 -70.472656 27.15625 -70.546875 C 26.144531 -70.617188 25.640625 -70.65625 25.640625 -70.65625 L 20.828125 -70.65625 L 20.828125 -43.34375 Z M 25.640625 -43.34375 "/></g></g></g><g fill="#1a3850" fill-opacity="1"><g transform="translate(221.225802, 88.049573)"><g><path d="M 72.796875 -0.34375 L 46.46875 -0.34375 C 49.15625 -3.25 50.085938 -6.421875 49.265625 -9.859375 C 48.671875 -12.242188 48 -14.441406 47.25 -16.453125 C 46.507812 -18.472656 45.875 -20.078125 45.34375 -21.265625 C 44.820312 -22.460938 44.5625 -23.0625 44.5625 -23.0625 L 20.265625 -23.0625 L 18.25 -16.015625 C 17.65625 -13.992188 17.171875 -12.195312 16.796875 -10.625 C 16.421875 -9.0625 16.234375 -7.609375 16.234375 -6.265625 C 16.234375 -4.179688 16.90625 -2.207031 18.25 -0.34375 L -1.453125 -0.34375 C 0.859375 -2.65625 2.742188 -4.929688 4.203125 -7.171875 C 5.660156 -9.410156 7.097656 -12.359375 8.515625 -16.015625 L 25.078125 -64.953125 C 26.648438 -69.128906 27.4375 -72.414062 27.4375 -74.8125 C 27.4375 -76.226562 27.210938 -77.867188 26.765625 -79.734375 L 39.1875 -79.734375 L 59.125 -25.078125 C 60.25 -22.171875 61.441406 -19.128906 62.703125 -15.953125 C 63.972656 -12.785156 65.410156 -9.800781 67.015625 -7 C 68.628906 -4.195312 70.554688 -1.976562 72.796875 -0.34375 Z M 22.84375 -30.578125 L 41.765625 -30.453125 L 32.140625 -56 Z M 22.84375 -30.578125 "/></g></g></g><g fill="#1a3850" fill-opacity="1"><g transform="translate(297.488123, 88.049573)"><g><path d="M 50.84375 -78.28125 L 68.09375 -78.28125 C 66.75 -75.96875 65.757812 -73.707031 65.125 -71.5 C 64.488281 -69.300781 64.171875 -66.554688 64.171875 -63.265625 L 64.171875 1.234375 C 57.453125 1.378906 52.257812 -1.34375 48.59375 -6.9375 L 15.234375 -53.421875 L 15.234375 -16.015625 C 15.234375 -12.359375 15.550781 -9.410156 16.1875 -7.171875 C 16.820312 -4.929688 17.847656 -2.65625 19.265625 -0.34375 L 1.90625 -0.34375 C 3.25 -2.65625 4.238281 -4.929688 4.875 -7.171875 C 5.507812 -9.410156 5.828125 -12.359375 5.828125 -16.015625 L 5.828125 -62.59375 C 5.828125 -66.257812 5.507812 -69.210938 4.875 -71.453125 C 4.238281 -73.691406 3.25 -75.96875 1.90625 -78.28125 L 17.25 -78.28125 L 54.765625 -24.53125 L 54.765625 -62.59375 C 54.765625 -66.257812 54.445312 -69.210938 53.8125 -71.453125 C 53.175781 -73.691406 52.1875 -75.96875 50.84375 -78.28125 Z M 50.84375 -78.28125 "/></g></g></g></g></g></svg>